<svg fill="#000000" xmlns="http://www.w3.org/2000/svg"  viewBox="0 0 24 24" width="24px" height="24px"><path d="M 4 0 C 2.8974609 0 2 0.8969727 2 2 L 2 9 C 0.8974609 9 0 9.8969727 0 11 L 0 22 C 0 23.103027 0.8974609 24 2 24 L 13 24 C 14.102539 24 15 23.103027 15 22 L 22 22 C 23.102539 22 24 21.103027 24 20 L 24 2 C 24 0.8969727 23.102539 0 22 0 L 4 0 z M 4 1 L 22 1 C 22.551758 1 23 1.4487305 23 2 L 23 20 C 23 20.55127 22.551758 21 22 21 L 15 21 L 15 11 C 15 9.8969727 14.102539 9 13 9 L 3 9 L 3 2 C 3 1.4487305 3.4482422 1 4 1 z M 16 6 C 15.723633 6 15.5 6.2236328 15.5 6.5 C 15.5 6.7763672 15.723633 7 16 7 L 16.292969 7 L 15.146484 8.1464844 C 14.951172 8.3417969 14.951172 8.6582032 15.146484 8.8535156 C 15.244141 8.9511719 15.37207 9 15.5 9 C 15.62793 9 15.755859 8.9511719 15.853516 8.8535156 L 17 7.7070312 L 17 8 C 17 8.2763672 17.223633 8.5 17.5 8.5 C 17.776367 8.5 18 8.2763672 18 8 L 18 6.5 C 18 6.2236328 17.776367 6 17.5 6 L 16 6 z M 2 10 L 13 10 C 13.551758 10 14 10.44873 14 11 L 14 13 L 1 13 L 1 11 C 1 10.44873 1.4482422 10 2 10 z M 2.5 11 A 0.5 0.5 0 0 0 2.5 12 A 0.5 0.5 0 0 0 2.5 11 z M 4.5 11 A 0.5 0.5 0 0 0 4.5 12 A 0.5 0.5 0 0 0 4.5 11 z M 6.5 11 A 0.5 0.5 0 0 0 6.5 12 A 0.5 0.5 0 0 0 6.5 11 z M 1 14 L 14 14 L 14 22 C 14 22.55127 13.551758 23 13 23 L 2 23 C 1.4482422 23 1 22.55127 1 22 L 1 14 z"/></svg>